<svg width="246" height="323" viewBox="0 0 246 323" fill="none" xmlns="http://www.w3.org/2000/svg">
<circle cx="28.9998" cy="119" r="27" stroke="#131313" stroke-width="12"/>
<circle cx="121" cy="290" r="27" stroke="#285B8E" stroke-width="12"/>
<path d="M91.9998 120C91.9998 104.536 104.536 92 120 92C135.464 92 148 104.536 148 120V204C148 219.464 135.464 232 120 232C104.536 232 91.9998 219.464 91.9998 204V120Z" stroke="#131313" stroke-width="12"/>
<path d="M184 34C184 18.536 196.536 6 212 6C227.464 6 240 18.536 240 34V118C240 133.464 227.464 146 212 146C196.536 146 184 133.464 184 118V34Z" stroke="#131313" stroke-width="12"/>
</svg>
