<svg width="725" height="1446" viewBox="0 0 725 1446" fill="none" xmlns="http://www.w3.org/2000/svg">
<path opacity="0.3" d="M0.00915527 1445.35C399.858 1445.35 724 1122.01 724 723.142C724 324.277 399.858 0.932617 0.00915527 0.932617C-399.84 0.932617 -723.981 324.277 -723.981 723.142C-723.981 1122.01 -399.84 1445.35 0.00915527 1445.35Z" stroke="#4195D1" stroke-width="0.5" stroke-miterlimit="10"/>
<path opacity="0.3438" d="M0.00946045 1401.49C375.574 1401.49 680.03 1097.78 680.03 723.143C680.03 348.502 375.574 44.7954 0.00946045 44.7954C-375.556 44.7954 -680.011 348.502 -680.011 723.143C-680.011 1097.78 -375.556 1401.49 0.00946045 1401.49Z" stroke="#4195D1" stroke-width="0.5938" stroke-miterlimit="10"/>
<path opacity="0.3875" d="M0.00976562 1357.67C351.317 1357.67 636.108 1073.58 636.108 723.142C636.108 372.699 351.317 88.6084 0.00976562 88.6084C-351.298 88.6084 -636.089 372.699 -636.089 723.142C-636.089 1073.58 -351.298 1357.67 0.00976562 1357.67Z" stroke="#4195D1" stroke-width="0.6875" stroke-miterlimit="10"/>
<path opacity="0.4313" d="M0.00860596 1313.81C327.032 1313.81 592.137 1049.36 592.137 723.141C592.137 396.922 327.032 132.47 0.00860596 132.47C-327.015 132.47 -592.12 396.922 -592.12 723.141C-592.12 1049.36 -327.015 1313.81 0.00860596 1313.81Z" stroke="#4195D1" stroke-width="0.7813" stroke-miterlimit="10"/>
<path opacity="0.475" d="M0.00891113 1269.95C302.749 1269.95 548.168 1025.14 548.168 723.142C548.168 421.148 302.749 176.333 0.00891113 176.333C-302.731 176.333 -548.15 421.148 -548.15 723.142C-548.15 1025.14 -302.731 1269.95 0.00891113 1269.95Z" stroke="#4195D1" stroke-width="0.875" stroke-miterlimit="10"/>
<path opacity="0.5188" d="M0.00897217 1226.14C278.491 1226.14 504.246 1000.94 504.246 723.143C504.246 445.346 278.491 220.146 0.00897217 220.146C-278.473 220.146 -504.228 445.346 -504.228 723.143C-504.228 1000.94 -278.473 1226.14 0.00897217 1226.14Z" stroke="#4195D1" stroke-width="0.9688" stroke-miterlimit="10"/>
<path opacity="0.5625" d="M0.00912476 1182.28C254.208 1182.28 460.276 976.715 460.276 723.142C460.276 469.569 254.208 264.007 0.00912476 264.007C-254.189 264.007 -460.258 469.569 -460.258 723.142C-460.258 976.715 -254.189 1182.28 0.00912476 1182.28Z" stroke="#4195D1" stroke-width="1.0625" stroke-miterlimit="10"/>
<path opacity="0.6062" d="M0.0090332 1138.46C229.95 1138.46 416.354 952.518 416.354 723.142C416.354 493.767 229.95 307.822 0.0090332 307.822C-229.932 307.822 -416.336 493.767 -416.336 723.142C-416.336 952.518 -229.932 1138.46 0.0090332 1138.46Z" stroke="#4195D1" stroke-width="1.1563" stroke-miterlimit="10"/>
<path opacity="0.65" d="M0.00985718 1094.6C205.667 1094.6 372.385 928.292 372.385 723.141C372.385 517.99 205.667 351.683 0.00985718 351.683C-205.647 351.683 -372.365 517.99 -372.365 723.141C-372.365 928.292 -205.647 1094.6 0.00985718 1094.6Z" stroke="#4195D1" stroke-width="1.25" stroke-miterlimit="10"/>
<path opacity="0.6938" d="M0.00866699 1050.74C181.382 1050.74 328.414 904.069 328.414 723.142C328.414 542.215 181.382 395.545 0.00866699 395.545C-181.364 395.545 -328.396 542.215 -328.396 723.142C-328.396 904.069 -181.364 1050.74 0.00866699 1050.74Z" stroke="#4195D1" stroke-width="1.3438" stroke-miterlimit="10"/>
<path opacity="0.7375" d="M0.00863647 1006.93C157.124 1006.93 284.492 879.871 284.492 723.142C284.492 566.413 157.124 439.358 0.00863647 439.358C-157.107 439.358 -284.475 566.413 -284.475 723.142C-284.475 879.871 -157.107 1006.93 0.00863647 1006.93Z" stroke="#4195D1" stroke-width="1.4375" stroke-miterlimit="10"/>
<path opacity="0.7813" d="M0.00933838 963.063C132.841 963.063 240.523 855.647 240.523 723.142C240.523 590.637 132.841 483.22 0.00933838 483.22C-132.822 483.22 -240.504 590.637 -240.504 723.142C-240.504 855.647 -132.822 963.063 0.00933838 963.063Z" stroke="#4195D1" stroke-width="1.5313" stroke-miterlimit="10"/>
<path opacity="0.825" d="M0.0096283 919.201C108.557 919.201 196.553 831.422 196.553 723.142C196.553 614.861 108.557 527.082 0.0096283 527.082C-108.538 527.082 -196.534 614.861 -196.534 723.142C-196.534 831.422 -108.538 919.201 0.0096283 919.201Z" stroke="#4195D1" stroke-width="1.625" stroke-miterlimit="10"/>
<path opacity="0.8687" d="M0.00964355 875.388C84.3002 875.388 152.631 807.225 152.631 723.142C152.631 639.058 84.3002 570.896 0.00964355 570.896C-84.2809 570.896 -152.612 639.058 -152.612 723.142C-152.612 807.225 -84.2809 875.388 0.00964355 875.388Z" stroke="#4195D1" stroke-width="1.7188" stroke-miterlimit="10"/>
<path opacity="0.9125" d="M0.00843811 831.526C60.015 831.526 108.66 783.001 108.66 723.142C108.66 663.283 60.015 614.758 0.00843811 614.758C-59.9981 614.758 -108.643 663.283 -108.643 723.142C-108.643 783.001 -59.9981 831.526 0.00843811 831.526Z" stroke="#4195D1" stroke-width="1.8125" stroke-miterlimit="10"/>
<path opacity="0.9563" d="M0.0088501 787.712C35.758 787.712 64.7384 758.803 64.7384 723.142C64.7384 687.481 35.758 658.572 0.0088501 658.572C-35.7403 658.572 -64.7207 687.481 -64.7207 723.142C-64.7207 758.803 -35.7403 787.712 0.0088501 787.712Z" stroke="#4195D1" stroke-width="1.9063" stroke-miterlimit="10"/>
<path d="M0.00913239 743.851C11.4743 743.851 20.7687 734.579 20.7687 723.142C20.7687 711.706 11.4743 702.434 0.00913239 702.434C-11.4561 702.434 -20.7505 711.706 -20.7505 723.142C-20.7505 734.579 -11.4561 743.851 0.00913239 743.851Z" stroke="#4195D1" stroke-width="2" stroke-miterlimit="10"/>
</svg>
