<svg width="746" height="406" viewBox="0 0 746 406" fill="none" xmlns="http://www.w3.org/2000/svg">
<circle cx="126" cy="203" r="27" stroke="#89C7EA" stroke-width="12"/>
<path d="M428 203C428 217.827 415.773 230 400.5 230C385.227 230 373 217.827 373 203C373 188.173 385.227 176 400.5 176C415.773 176 428 188.173 428 203Z" stroke="#131313" stroke-width="12"/>
<path d="M691 117C691 131.827 678.773 144 663.5 144C648.227 144 636 131.827 636 117C636 102.173 648.227 90 663.5 90C678.773 90 691 102.173 691 117Z" stroke="#131313" stroke-width="12"/>
<circle cx="310" cy="117" r="27" stroke="#131313" stroke-width="12"/>
<circle cx="579" cy="33" r="27" stroke="#131313" stroke-width="12"/>
<circle cx="216" cy="33" r="27" stroke="#131313" stroke-width="12"/>
<path d="M96.9998 288C96.9998 272.536 109.536 260 125 260C140.464 260 153 272.536 153 288V372C153 387.464 140.464 400 125 400C109.536 400 96.9998 387.464 96.9998 372V288Z" stroke="#131313" stroke-width="12"/>
<path d="M281 204C281 188.536 293.536 176 309 176C324.464 176 337 188.536 337 204V288C337 303.464 324.464 316 309 316C293.536 316 281 303.464 281 288V204Z" stroke="#131313" stroke-width="12"/>
<path d="M550 120C550 104.536 562.536 92 578 92C593.464 92 606 104.536 606 120V204C606 219.464 593.464 232 578 232C562.536 232 550 219.464 550 204V120Z" stroke="#131313" stroke-width="12"/>
<path d="M464 204C464 188.536 476.536 176 492 176C507.464 176 520 188.536 520 204V288C520 303.464 507.464 316 492 316C476.536 316 464 303.464 464 288V204Z" stroke="#131313" stroke-width="12"/>
<path d="M189 118C189 102.536 201.536 90 217 90C232.464 90 245 102.536 245 118V202C245 217.464 232.464 230 217 230C201.536 230 189 217.464 189 202V118Z" stroke="#131313" stroke-width="12"/>
<path d="M5.99976 118C5.99976 102.536 18.5358 90 33.9998 90C49.4637 90 61.9998 102.536 61.9998 118V202C61.9998 217.464 49.4637 230 33.9998 230C18.5358 230 5.99976 217.464 5.99976 202V118Z" stroke="#131313" stroke-width="12"/>
<path d="M715 118C715 102.536 727.536 90 743 90C758.464 90 771 102.536 771 118V202C771 217.464 758.464 230 743 230C727.536 230 715 217.464 715 202V118Z" stroke="#285B8E" stroke-width="12"/>
</svg>
